# ProBuilder 5.2.2
# https://unity3d.com/unity/features/worldbuilding/probuilder
# 5/2/2024 9:50:08 PM

mtllib ./Block.mtl
o Block

g Block
v -0.71875 -0.06250003 0.9017627
v -0.96875 -0.06250003 0.46875
v -0.71875 0.1875 0.9017627
v -0.96875 0.1875 0.46875
v -0.21875 -0.06250003 0.9017627
v -0.21875 0.1875 0.9017627
v 0.03125 -0.06250003 0.46875
v 0.03125 0.1875 0.46875
v -0.21875 -0.06250003 0.03573728
v -0.21875 0.1875 0.03573728
v -0.7187499 -0.06250003 0.03573728
v -0.7187499 0.1875 0.03573728
v -0.46875 -0.06250003 0.46875
v -0.46875 0.1875 0.46875

vt 0.4215745 -0.06250003
vt -0.07842557 -0.06250003
vt 0.4215745 0.1875
vt -0.07842557 0.1875
vt -0.21875 -0.06250003
vt -0.71875 -0.06250003
vt -0.21875 0.1875
vt -0.71875 0.1875
vt -0.3903244 -0.06250003
vt -0.8903244 -0.06250003
vt -0.3903244 0.1875
vt -0.8903244 0.1875
vt 0.07842566 -0.06250003
vt -0.4215744 -0.06250003
vt 0.07842566 0.1875
vt -0.4215744 0.1875
vt 0.7187499 -0.06250003
vt 0.21875 -0.06250003
vt 0.7187499 0.1875
vt 0.21875 0.1875
vt 0.8903245 -0.06250003
vt 0.3903244 -0.06250003
vt 0.8903245 0.1875
vt 0.3903244 0.1875
vt -0.96875 0.46875
vt -0.71875 0.9017627
vt -0.46875 0.46875
vt 0.71875 0.9017627
vt 0.96875 0.46875
vt 0.46875 0.46875
vt -0.21875 0.9017627
vt 0.21875 0.9017627
vt 0.03125 0.46875
vt -0.03125 0.46875
vt -0.21875 0.03573728
vt 0.21875 0.03573728
vt -0.7187499 0.03573728
vt 0.7187499 0.03573728

vn -0.5000001 0 0.8660254
vn -1 0 -6.882551E-08
vn 0.5000001 0 0.8660253
vn 1 0 -1.204446E-07
vn 0.5 0 -0.8660254
vn -0.5 0 -0.8660254
vn 0 -1 0
vn 0 1 0

usemtl Block
f 13/27/7 1/26/7 2/25/7
f 14/30/8 4/29/8 3/28/8
f 13/27/7 5/31/7 1/26/7
f 14/30/8 3/28/8 6/32/8
f 13/27/7 7/33/7 5/31/7
f 14/30/8 6/32/8 8/34/8
f 13/27/7 9/35/7 7/33/7
f 14/30/8 8/34/8 10/36/8
f 13/27/7 11/37/7 9/35/7
f 14/30/8 10/36/8 12/38/8
f 13/27/7 2/25/7 11/37/7
f 14/30/8 12/38/8 4/29/8
f 4/4/2 2/2/2 1/1/1
f 1/1/1 3/3/1 4/4/2
f 3/8/1 1/6/1 5/5/3
f 5/5/3 6/7/3 3/8/1
f 6/12/3 5/10/3 7/9/4
f 7/9/4 8/11/4 6/12/3
f 8/16/4 7/14/4 9/13/5
f 9/13/5 10/15/5 8/16/4
f 10/20/5 9/18/5 11/17/6
f 11/17/6 12/19/6 10/20/5
f 12/24/6 11/22/6 2/21/2
f 2/21/2 4/23/2 12/24/6

